<svg width="80" height="48" viewBox="0 0 80 48" fill="none" xmlns="http://www.w3.org/2000/svg">
<path d="M5.4517 27.7493L5.41619 21.2685H6.33949L17.206 9.72727H23.5625L11.169 22.8665H10.3345L5.4517 27.7493ZM0.568892 37V0.636363H5.87784V37H0.568892ZM17.7919 37L8.02628 24.0384L11.6839 20.3274L24.3082 37H17.7919ZM39.0321 37.5504C36.3451 37.5504 34.031 36.9763 32.0897 35.8281C30.1602 34.6681 28.6687 33.0405 27.6152 30.9453C26.5736 28.8383 26.0527 26.3703 26.0527 23.5412C26.0527 20.7476 26.5736 18.2855 27.6152 16.1548C28.6687 14.0241 30.1365 12.361 32.0186 11.1655C33.9126 9.96993 36.1261 9.37216 38.6593 9.37216C40.1981 9.37216 41.6896 9.62666 43.1337 10.1357C44.5778 10.6446 45.874 11.4437 47.0222 12.5327C48.1704 13.6217 49.0759 15.0362 49.7388 16.7763C50.4017 18.5045 50.7331 20.6056 50.7331 23.0795V24.9616H29.0534V20.9844H45.5307C45.5307 19.5876 45.2466 18.3506 44.6784 17.2734C44.1103 16.1844 43.3113 15.3262 42.2814 14.6989C41.2634 14.0715 40.0679 13.7578 38.6948 13.7578C37.2033 13.7578 35.9012 14.1248 34.7885 14.8587C33.6877 15.5807 32.8354 16.5277 32.2317 17.6996C31.6399 18.8596 31.3439 20.1203 31.3439 21.4815V24.5888C31.3439 26.4117 31.6635 27.9624 32.3027 29.2408C32.9538 30.5192 33.8593 31.4957 35.0194 32.1705C36.1794 32.8333 37.5347 33.1648 39.0854 33.1648C40.0916 33.1648 41.0089 33.0227 41.8375 32.7386C42.6661 32.4427 43.3823 32.0047 43.986 31.4247C44.5897 30.8447 45.0513 30.1286 45.3709 29.2763L50.3958 30.1818C49.9933 31.6615 49.2712 32.9576 48.2296 34.0703C47.1998 35.1712 45.9036 36.0294 44.3411 36.6449C42.7904 37.2486 41.0208 37.5504 39.0321 37.5504ZM59.1982 47.2273C58.4051 47.2273 57.683 47.1622 57.032 47.032C56.3809 46.9136 55.8956 46.7834 55.576 46.6413L56.8544 42.2912C57.825 42.5516 58.6892 42.6641 59.4467 42.6286C60.2043 42.593 60.8731 42.3089 61.4531 41.7763C62.045 41.2436 62.5658 40.3736 63.0156 39.1662L63.6726 37.3551L53.6939 9.72727H59.3757L66.2827 30.892H66.5668L73.4737 9.72727H79.1733L67.9339 40.6399C67.4131 42.0604 66.7502 43.2618 65.9453 44.2443C65.1404 45.2386 64.1816 45.9844 63.0689 46.4815C61.9562 46.9787 60.666 47.2273 59.1982 47.2273Z" fill="black"/>
</svg>
