<svg width="604" height="368" viewBox="0 0 604 368" fill="none" xmlns="http://www.w3.org/2000/svg">
<rect width="604" height="368" rx="184" fill="black"/>
<path d="M132.642 257V111.545H163.395V175.679H165.312L217.656 111.545H254.517L200.54 176.673L255.156 257H218.366L178.523 197.199L163.395 215.665V257H132.642ZM311.673 259.131C300.451 259.131 290.792 256.858 282.695 252.312C274.646 247.72 268.443 241.233 264.087 232.852C259.731 224.424 257.553 214.457 257.553 202.952C257.553 191.73 259.731 181.882 264.087 173.406C268.443 164.931 274.575 158.326 282.482 153.591C290.437 148.856 299.764 146.489 310.465 146.489C317.662 146.489 324.362 147.649 330.565 149.969C336.815 152.241 342.26 155.674 346.9 160.267C351.587 164.86 355.233 170.636 357.837 177.597C360.442 184.509 361.744 192.606 361.744 201.886V210.196H269.627V191.446H333.263C333.263 187.09 332.317 183.231 330.423 179.869C328.529 176.508 325.901 173.88 322.539 171.986C319.225 170.045 315.366 169.074 310.962 169.074C306.37 169.074 302.298 170.139 298.746 172.27C295.243 174.353 292.496 177.17 290.508 180.722C288.519 184.225 287.501 188.132 287.454 192.44V210.267C287.454 215.665 288.448 220.329 290.437 224.259C292.473 228.188 295.337 231.219 299.031 233.349C302.724 235.48 307.103 236.545 312.17 236.545C315.531 236.545 318.609 236.072 321.403 235.125C324.196 234.178 326.587 232.758 328.576 230.864C330.565 228.97 332.08 226.65 333.121 223.903L361.104 225.75C359.684 232.473 356.772 238.345 352.369 243.364C348.013 248.335 342.378 252.218 335.465 255.011C328.6 257.758 320.669 259.131 311.673 259.131ZM397.237 297.909C393.402 297.909 389.804 297.601 386.442 296.986C383.127 296.418 380.381 295.684 378.203 294.784L385.021 272.199C388.572 273.288 391.768 273.88 394.609 273.974C397.498 274.069 399.983 273.406 402.067 271.986C404.197 270.565 405.926 268.151 407.251 264.741L409.027 260.125L369.893 147.909H401.712L424.297 228.023H425.433L448.232 147.909H480.263L437.862 268.79C435.826 274.661 433.056 279.775 429.553 284.131C426.096 288.534 421.716 291.92 416.413 294.287C411.11 296.702 404.718 297.909 397.237 297.909Z" fill="#F1FEAB"/>
</svg>
